<svg id="Layer_1" fill="#ffffff" data-name="Layer 1" xmlns="http://www.w3.org/2000/svg" viewBox="0 0 318 66"><path d="M8.86,28.19,3.77,26.83V22L16.9,20.44H17l2,1.44V56.39l4.81.57v4.31h-20V57l5-.64ZM8.58,13.34A5.21,5.21,0,0,1,7.07,9.47,6.24,6.24,0,0,1,8.79,5a6.06,6.06,0,0,1,4.59-1.8A5.83,5.83,0,0,1,17.76,4.7a5.28,5.28,0,0,1,1.51,3.83,6.21,6.21,0,0,1-1.73,4.6,6.51,6.51,0,0,1-4.8,1.72h-.07A5.49,5.49,0,0,1,8.58,13.34Z"/><path d="M34.8,40.25q6.57-3.3,17-3.38V35.22a13.88,13.88,0,0,0-.61-4.59,4.43,4.43,0,0,0-2.23-2.47,10.57,10.57,0,0,0-4.7-.83,20.59,20.59,0,0,0-6.31.9,46.32,46.32,0,0,0-5.81,2.33L29.88,26a19.18,19.18,0,0,1,3.63-2.22,32.12,32.12,0,0,1,6.06-2.27,27.38,27.38,0,0,1,7.25-1A21.24,21.24,0,0,1,55.46,22,8.72,8.72,0,0,1,60,26.54,21.94,21.94,0,0,1,61.31,35V57h3.87v4a39.61,39.61,0,0,1-4.09.72,35.18,35.18,0,0,1-4.66.36,5.2,5.2,0,0,1-3.26-.72c-.55-.48-.83-1.46-.83-2.94V56.46a19.41,19.41,0,0,1-5,3.88,14.14,14.14,0,0,1-7,1.72,13.24,13.24,0,0,1-6.06-1.4,10.81,10.81,0,0,1-4.42-4.09,12.18,12.18,0,0,1-1.65-6.49Q28.23,43.54,34.8,40.25Zm13.6,15A13.6,13.6,0,0,0,51.77,53V41.25c-4.31,0-7.52.73-9.65,2.19a6.6,6.6,0,0,0-3.2,5.63,7.58,7.58,0,0,0,1.62,5.24A5.61,5.61,0,0,0,45,56.1,8.51,8.51,0,0,0,48.4,55.21Z"/><path d="M69.63,57l4-.64V28.19L69.06,26.9V22L81,20.44l.86.58,1.07,2.37v3a20.62,20.62,0,0,1,6.79-4,21,21,0,0,1,7.64-1.76,13.22,13.22,0,0,1,6.27,1.29,8.18,8.18,0,0,1,3.63,4,20.84,20.84,0,0,1,6.24-3.73,19.91,19.91,0,0,1,7.6-1.58q6.39,0,9,3.73t2.66,12.2v19.8l4.66.64v4.31H118.85V57l3.73-.64V36.8q0-5.59-1.33-7.85c-.88-1.51-2.57-2.26-5-2.26a10.68,10.68,0,0,0-4.13.89,16.71,16.71,0,0,0-3.77,2.19,38,38,0,0,1,.51,6.82V56.32l4.44.64v4.31H94.53V57l3.94-.64V36.59A28.7,28.7,0,0,0,98,30.74a5,5,0,0,0-1.76-3.08,6.12,6.12,0,0,0-3.73-1,10.74,10.74,0,0,0-4.56,1,19.63,19.63,0,0,0-4,2.47V56.32l4.23.64v4.31H69.63Z"/><path d="M139.08,4l13.13-1.57h.15l2,1.36V25a16.94,16.94,0,0,1,4.78-3.26,15.21,15.21,0,0,1,17.36,3.52q4.33,4.83,4.34,14.81a24.08,24.08,0,0,1-2.58,11.19,19.44,19.44,0,0,1-7.43,7.93,21.38,21.38,0,0,1-11.23,2.91,43.57,43.57,0,0,1-9.83-1,19,19,0,0,1-5.31-1.76V8.61l-5.38-.86Zm18.33,23.65a11.11,11.11,0,0,0-3,2.18V56a3.31,3.31,0,0,0,2,1.29,11.66,11.66,0,0,0,3.59.51,8.42,8.42,0,0,0,7.35-4.27q2.77-4.28,2.77-12.67,0-7.24-2.37-10.72a7.24,7.24,0,0,0-6.24-3.48A8.77,8.77,0,0,0,157.41,27.66Z"/><path d="M192.43,40.25q6.56-3.3,17-3.38V35.22a13.62,13.62,0,0,0-.61-4.59,4.37,4.37,0,0,0-2.22-2.47,10.6,10.6,0,0,0-4.7-.83,20.54,20.54,0,0,0-6.31.9,45.72,45.72,0,0,0-5.81,2.33L187.51,26a19.37,19.37,0,0,1,3.62-2.22,32.24,32.24,0,0,1,6.07-2.27,27.36,27.36,0,0,1,7.24-1A21.26,21.26,0,0,1,213.09,22a8.7,8.7,0,0,1,4.48,4.59A21.73,21.73,0,0,1,218.94,35V57h3.87v4a40.11,40.11,0,0,1-4.09.72,35.18,35.18,0,0,1-4.66.36,5.23,5.23,0,0,1-3.27-.72c-.55-.48-.82-1.46-.82-2.94V56.46a19.41,19.41,0,0,1-5,3.88,14.14,14.14,0,0,1-7,1.72,13.29,13.29,0,0,1-6.07-1.4,10.85,10.85,0,0,1-4.41-4.09,12.18,12.18,0,0,1-1.65-6.49Q185.86,43.54,192.43,40.25Zm13.59,15A13.42,13.42,0,0,0,209.39,53V41.25q-6.45,0-9.65,2.19a6.61,6.61,0,0,0-3.19,5.63,7.58,7.58,0,0,0,1.62,5.24,5.6,5.6,0,0,0,4.41,1.79A8.47,8.47,0,0,0,206,55.21Z"/><path d="M234.29,59.94a14.63,14.63,0,0,1-5.6-6.56,26.37,26.37,0,0,1-2.08-11.12,24.47,24.47,0,0,1,2.48-11,19.18,19.18,0,0,1,7.28-7.93,21.74,21.74,0,0,1,11.55-2.94,22.14,22.14,0,0,1,5.17.58V8.82l-7-1V3.87l14.78-1.43h.21l2,1.5v53h3.88V61a43.38,43.38,0,0,1-8.54,1.08,5.39,5.39,0,0,1-3.27-.76c-.64-.5-1-1.49-1-3v-2a13.93,13.93,0,0,1-5.09,4.12,15,15,0,0,1-6.82,1.62A15.14,15.14,0,0,1,234.29,59.94Zm15.89-4.81a8.93,8.93,0,0,0,2.91-2.33V26.69A4,4,0,0,0,251,25.47a11.43,11.43,0,0,0-3.48-.51,8.53,8.53,0,0,0-7.35,4q-2.76,4-2.76,12.73,0,7.32,2.36,10.87A7.2,7.2,0,0,0,246,56.1,8.78,8.78,0,0,0,250.18,55.13Z"/><path d="M301.09,61A3.91,3.91,0,0,1,300,58V56a17.14,17.14,0,0,1-5.45,4.2,15.14,15.14,0,0,1-7,1.83q-6.9,0-9.83-3.55t-2.95-11.73V26.54l-3.58-1V21.45l12.19-.93h.08l1.43,1V46.78q0,5.24,1.29,7.31c.86,1.39,2.47,2.08,4.81,2.08a11.55,11.55,0,0,0,7.89-3.3V26.54l-4.8-1.07v-4l13-.93h.14l1.73,1v35.3h4l-.07,4.09-2.65.57a27.32,27.32,0,0,1-5.67.51A4.91,4.91,0,0,1,301.09,61Z"/></svg>