<?xml version="1.0" encoding="utf-8"?>
<!-- Generator: Adobe Illustrator 24.1.2, SVG Export Plug-In . SVG Version: 6.00 Build 0)  -->
<svg version="1.1" id="Layer_1" xmlns="http://www.w3.org/2000/svg" xmlns:xlink="http://www.w3.org/1999/xlink" x="0px" y="0px"
	 viewBox="0 0 32 32" style="enable-background:new 0 0 32 32;" xml:space="preserve">
<style type="text/css">
	.st0{fill:#FFFFFF;}
	.st1{fill:#1572B6;}
</style>
<g>
	<path class="st0" d="M25,19.9c0-0.3,0-0.5,0-0.8c0-1.9-0.1-3.9-0.1-5.8c0-0.9,0-1.8-0.1-2.7c0-0.1,0-0.3,0-0.4
		c0.2-0.1,0.4-0.3,0.6-0.6c0.8-1.2,0.3-3.4-0.9-4.2C23.6,5,22.6,5.1,21.7,5c-1.1-0.1-2.1-0.1-3.2-0.2c-2.1-0.1-4.2-0.3-6.3-0.4
		c-0.9-0.1-1.8-0.1-2.8-0.2C8.6,4.2,7.7,4.1,7,4.5C5.8,5.2,5.7,6.3,6.1,7.2c0,1.2,0,2.5,1,3.1c-0.1,0.5,0,1,0.4,1.4
		c-0.3,0.6-0.3,1.4,0.2,1.8c0,0-0.1,0-0.1,0c-1.3,0-1.9,1.9-1.1,2.6c-1.1,0.7-0.8,2.6,0.8,2.8c0.1,0,0.1,0,0.2,0
		C7.7,20.5,7,22,7.6,23.6c0.5,1.5,1.8,2.4,3.3,2.9c1.6,0.5,3.5,0.8,5.1,0.7c1.7-0.2,3.2-1,4.9-1.3c0.9-0.2,1.8-0.5,2.5-1
		c0,0,0.1,0,0.1,0c1,0,1.5-0.8,1.4-1.6c0.7-0.5,0.9-1.6,0.3-2.3C25.3,20.5,25.2,20.2,25,19.9z"/>
	<path class="st1" d="M2,0h28l-2.5,28.8L16,32L4.5,28.7L2,0z M24.8,5.9l-17.6,0l0.3,3.5l13.5,0L20.7,13h-8.9l0.3,3.4h8.2l-0.5,4.7
		L16,22.2l-3.9-1.1l-0.3-2.8H8.3l0.4,5.1l7.3,2.3l7.2-2L24.8,5.9z"/>
</g>
</svg>
