<?xml version="1.0" encoding="utf-8"?>
<!-- Generator: Adobe Illustrator 24.1.2, SVG Export Plug-In . SVG Version: 6.00 Build 0)  -->
<svg version="1.1" xmlns="http://www.w3.org/2000/svg" xmlns:xlink="http://www.w3.org/1999/xlink" x="0px" y="0px"
	 viewBox="0 0 32 32" style="enable-background:new 0 0 32 32;" xml:space="preserve">
<style type="text/css">
	.st0{fill:#FCFCFC;}
	.st1{fill:#61DAFB;}
</style>
<g id="Layer_2">
	<rect class="st0" width="32" height="32"/>
</g>
<g id="Layer_1">
	<path class="st1" d="M16,13.1c-1.6,0-2.9,1.3-2.9,2.9s1.3,2.9,2.9,2.9l0,0c1.6,0,2.9-1.3,2.9-2.9S17.6,13.1,16,13.1
		C16,13.1,16,13.1,16,13.1z M8,21.7l-0.6-0.2C2.7,20.3,0,18.3,0,16s2.7-4.3,7.4-5.5L8,10.3l0.2,0.6c0.5,1.9,1.2,3.4,1.9,5L10,15.7
		l0.1,0.3L10,16.3c-0.7,1.3-1.3,2.9-1.8,4.6l-0.1,0.2L8,21.7z M7.1,11.9c-3.6,1-5.8,2.5-5.8,4.1c0,1.5,2.2,3.1,5.8,4.1
		c0.5-1.6,1-3,1.7-4.3L8.7,16c-0.5-1.1-1.1-2.4-1.5-3.8L7.1,11.9L7.1,11.9z M24,21.7L23.8,21c-0.5-1.9-1.2-3.4-1.9-5l0.1,0.2
		L21.9,16l0.1-0.3c0.7-1.3,1.3-2.9,1.8-4.6l0.1-0.2l0.2-0.6l0.6,0.2c4.7,1.2,7.4,3.2,7.4,5.5s-2.7,4.3-7.4,5.5L24,21.7z M23.3,16
		c0.6,1.4,1.2,2.7,1.6,4.1c3.6-1,5.8-2.5,5.8-4.1c0-1.5-2.2-3.1-5.8-4.1c-0.5,1.6-1,3-1.7,4.3L23.3,16L23.3,16z M7.1,11.9l-0.2-0.6
		C5.6,6.7,6,3.3,8,2.2c2-1.1,5.2,0.2,8.5,3.6l0.5,0.5l-0.5,0.5c-1.1,1.2-2.2,2.5-3.2,3.9l-0.1,0.1l-0.2,0.3l-0.3,0
		c-1.9,0.2-3.6,0.4-5.3,0.9l0.2,0L7.1,11.9z M9.6,3.1c-0.4,0-0.7,0.1-0.9,0.2c-1.3,0.8-1.6,3.4-0.6,7c1.2-0.3,2.7-0.5,4.2-0.7l0.1,0
		c0.9-1.3,1.8-2.4,2.8-3.4l0,0C13,4.2,11,3.1,9.6,3.1z M22.4,30.2C22.4,30.2,22.4,30.2,22.4,30.2c-1.9,0-4.3-1.4-6.9-4l-0.5-0.5
		l0.5-0.5c1.1-1.2,2.2-2.5,3.2-3.9l0.1-0.1l0.2-0.3l0.3,0c1.9-0.1,3.6-0.4,5.3-0.9l-0.2,0l0.6-0.2l0.2,0.6c1.3,4.6,0.9,8-1.1,9.1
		C23.6,30.1,23,30.2,22.4,30.2C22.4,30.2,22.4,30.2,22.4,30.2L22.4,30.2L22.4,30.2z M16.9,25.7c2.1,2,4,3.2,5.5,3.2h0
		c0.4,0,0.7-0.1,0.9-0.2c1.3-0.8,1.6-3.4,0.6-7c-1.2,0.3-2.7,0.5-4.2,0.7l-0.1,0C18.8,23.6,17.9,24.7,16.9,25.7L16.9,25.7L16.9,25.7
		z M24.9,11.9l-0.6-0.2c-1.5-0.4-3.2-0.7-4.9-0.8l-0.1,0l-0.3,0l-0.2-0.3c-1-1.5-2.1-2.8-3.2-4l0,0l-0.5-0.5l0.5-0.5
		C18.8,2.4,22,1,24,2.2c2,1.2,2.4,4.5,1.1,9.1L24.9,11.9z M19.7,9.7c1.5,0.1,3,0.4,4.3,0.7c0.9-3.6,0.7-6.2-0.6-7
		c-1.3-0.8-3.8,0.4-6.4,2.9c0.9,1,1.8,2.1,2.7,3.3C19.6,9.6,19.7,9.7,19.7,9.7z M9.6,30.2C9.6,30.2,9.6,30.2,9.6,30.2
		c-0.6,0-1.2-0.2-1.6-0.4l0,0c-2-1.2-2.4-4.5-1.1-9.1l0.2-0.6l0.6,0.2c1.5,0.4,3.2,0.7,5,0.8l0.3,0l0.2,0.3c1,1.5,2.1,2.8,3.2,4l0,0
		l0.5,0.5l-0.5,0.5C13.9,28.8,11.5,30.2,9.6,30.2L9.6,30.2z M8,21.7c-0.9,3.6-0.7,6.2,0.6,7c1.3,0.8,3.8-0.4,6.4-2.9
		c-0.9-1-1.8-2.1-2.7-3.3l-0.1-0.1c-1.6-0.1-3.1-0.4-4.5-0.7L8,21.7L8,21.7z M16,22.5c-1.1,0-2.2,0-3.4-0.1l-0.3,0l-0.2-0.3
		c-0.5-0.8-1.1-1.7-1.7-2.6l-0.1-0.2c-0.5-0.8-1-1.7-1.4-2.7l-0.1-0.2L8.7,16l0.1-0.3c0.6-1.2,1.1-2.2,1.7-3.2l-0.1,0.2
		c0.6-1,1.2-1.9,1.8-2.8l0.2-0.3l0.3,0c1-0.1,2.2-0.1,3.4-0.1s2.4,0.1,3.5,0.2l-0.1,0l0.3,0l0.2,0.3c1.2,1.7,2.3,3.6,3.3,5.6
		l0.1,0.2l0.1,0.3l-0.1,0.3c-1.1,2.2-2.2,4.1-3.4,5.9l0.1-0.1l-0.2,0.3l-0.3,0C18.2,22.5,17.1,22.5,16,22.5L16,22.5z M13.1,21.1
		c2,0.1,3.9,0.1,5.9,0c1-1.4,2-3.1,2.8-4.8l0.1-0.2c-0.9-2-1.9-3.6-3-5.2l0.1,0.1c-0.9-0.1-1.9-0.1-2.9-0.1s-2.1,0-3.1,0.1l0.1,0
		c-1,1.4-2,3.1-2.8,4.8L10.1,16c1,2,1.9,3.6,3,5.2L13.1,21.1L13.1,21.1z"/>
</g>
</svg>
